<svg width="34" height="34" viewBox="0 0 34 34" fill="none" xmlns="http://www.w3.org/2000/svg">
<path fill-rule="evenodd" clip-rule="evenodd" d="M12.7574 11.3432C12.3669 10.9527 11.7337 10.9527 11.3432 11.3432C10.9527 11.7337 10.9527 12.3669 11.3432 12.7574L15.5858 17L11.3432 21.2427C10.9527 21.6332 10.9527 22.2664 11.3432 22.6569C11.7337 23.0474 12.3669 23.0474 12.7574 22.6569L17 18.4143L21.2427 22.6569C21.6332 23.0474 22.2664 23.0474 22.6569 22.6569C23.0474 22.2664 23.0474 21.6332 22.6569 21.2427L18.4143 17L22.6569 12.7574C23.0474 12.3669 23.0474 11.7337 22.6569 11.3432C22.2664 10.9527 21.6332 10.9527 21.2427 11.3432L17 15.5858L12.7574 11.3432Z" fill="#010F07"/>
</svg>
